ISO-10303-21;
HEADER;
FILE_DESCRIPTION (( 'STEP AP214' ),
    '1' );
FILE_NAME ('MicroStrip.STEP',
    '2026-08-02T10:09:02',
    ( '' ),
    ( '' ),
    'SwSTEP 2.0',
    'SolidWorks 2021',
    '' );
FILE_SCHEMA (( 'AUTOMOTIVE_DESIGN' ));
ENDSEC;

DATA;
#1 = DIRECTION ( 'NONE',  ( -7.215947210217223845E-17, -1.000000000000000000, 0.000000000000000000 ) ) ;
#2 =( NAMED_UNIT ( * ) SI_UNIT ( $, .STERADIAN. ) SOLID_ANGLE_UNIT ( ) );
#3 = LINE ( 'NONE', #346, #271 ) ;
#4 = PRESENTATION_LAYER_ASSIGNMENT (  '', '', ( #104 ) ) ;
#5 = AXIS2_PLACEMENT_3D ( 'NONE', #160, #133, #355 ) ;
#6 = EDGE_CURVE ( 'NONE', #237, #265, #167, .T. ) ;
#7 = FILL_AREA_STYLE_COLOUR ( '', #324 ) ;
#8 = DIRECTION ( 'NONE',  ( 7.215947210217222612E-17, 1.000000000000000000, 0.000000000000000000 ) ) ;
#9 = EDGE_LOOP ( 'NONE', ( #348, #147, #336, #340 ) ) ;
#10 = SURFACE_SIDE_STYLE ('',( #328 ) ) ;
#11 = EDGE_LOOP ( 'NONE', ( #318, #38, #180, #123 ) ) ;
#12 = VECTOR ( 'NONE', #111, 1000.000000000000000 ) ;
#13 = LINE ( 'NONE', #97, #213 ) ;
#14 = CARTESIAN_POINT ( 'NONE',  ( 65.94167081054092705, 37.79579860248105661, -1.000000000000000000 ) ) ;
#15 = DIRECTION ( 'NONE',  ( -1.000000000000000000, 0.000000000000000000, 0.000000000000000000 ) ) ;
#16 = ADVANCED_FACE ( 'NONE', ( #142 ), #283, .F. ) ;
#17 = DIRECTION ( 'NONE',  ( 0.000000000000000000, 0.000000000000000000, -1.000000000000000000 ) ) ;
#18 = PLANE ( 'NONE',  #136 ) ;
#19 = VECTOR ( 'NONE', #209, 1000.000000000000000 ) ;
#20 = DIRECTION ( 'NONE',  ( 0.000000000000000000, -1.000000000000000000, 0.000000000000000000 ) ) ;
#21 = ADVANCED_FACE ( 'NONE', ( #137 ), #108, .F. ) ;
#22 = VECTOR ( 'NONE', #294, 1000.000000000000000 ) ;
#23 = CARTESIAN_POINT ( 'NONE',  ( 65.94167081054092705, 37.79579860248105661, -1.035000000000000142 ) ) ;
#24 = DIRECTION ( 'NONE',  ( 1.000000000000000000, 0.000000000000000000, 0.000000000000000000 ) ) ;
#25 = EDGE_LOOP ( 'NONE', ( #204, #59, #307, #87 ) ) ;
#26 = SURFACE_SIDE_STYLE ('',( #53 ) ) ;
#27 = ORIENTED_EDGE ( 'NONE', *, *, #46, .F. ) ;
#28 = DIRECTION ( 'NONE',  ( -0.000000000000000000, -0.000000000000000000, 1.000000000000000000 ) ) ;
#29 = STYLED_ITEM ( 'NONE', ( #326 ), #240 ) ;
#30 = ORIENTED_EDGE ( 'NONE', *, *, #74, .T. ) ;
#31 = UNCERTAINTY_MEASURE_WITH_UNIT (LENGTH_MEASURE( 1.000000000000000082E-05 ), #361, 'distance_accuracy_value', 'NONE');
#32 = ORIENTED_EDGE ( 'NONE', *, *, #246, .T. ) ;
#33 = FILL_AREA_STYLE ('',( #7 ) ) ;
#34 = PRODUCT_DEFINITION_SHAPE ( 'NONE', 'NONE',  #359 ) ;
#35 = EDGE_CURVE ( 'NONE', #265, #175, #333, .T. ) ;
#36 = FACE_OUTER_BOUND ( 'NONE', #66, .T. ) ;
#37 = LINE ( 'NONE', #289, #22 ) ;
#38 = ORIENTED_EDGE ( 'NONE', *, *, #35, .T. ) ;
#39 = EDGE_CURVE ( 'NONE', #41, #253, #222, .T. ) ;
#40 = LINE ( 'NONE', #69, #268 ) ;
#41 = VERTEX_POINT ( 'NONE', #121 ) ;
#42 = PRESENTATION_LAYER_ASSIGNMENT (  '', '', ( #29 ) ) ;
#43 = CARTESIAN_POINT ( 'NONE',  ( 0.000000000000000000, -67.46977910593113847, 0.03499999999999999639 ) ) ;
#44 =( GEOMETRIC_REPRESENTATION_CONTEXT ( 3 ) GLOBAL_UNCERTAINTY_ASSIGNED_CONTEXT ( ( #339 ) ) GLOBAL_UNIT_ASSIGNED_CONTEXT ( ( #48, #93, #183 ) ) REPRESENTATION_CONTEXT ( 'NONE', 'WORKASPACE' ) );
#45 = MECHANICAL_DESIGN_GEOMETRIC_PRESENTATION_REPRESENTATION (  '', ( #104 ), #72 ) ;
#46 = EDGE_CURVE ( 'NONE', #153, #225, #174, .T. ) ;
#47 = CARTESIAN_POINT ( 'NONE',  ( 7.215947210217224436E-15, 32.53022089406887574, 0.000000000000000000 ) ) ;
#48 =( LENGTH_UNIT ( ) NAMED_UNIT ( * ) SI_UNIT ( .MILLI., .METRE. ) );
#49 = CARTESIAN_POINT ( 'NONE',  ( 4.098000000000012299, 32.53022089406887574, 0.000000000000000000 ) ) ;
#50 = ADVANCED_FACE ( 'NONE', ( #293 ), #262, .F. ) ;
#51 = DIRECTION ( 'NONE',  ( -1.000000000000000000, 0.000000000000000000, 0.000000000000000000 ) ) ;
#52 = AXIS2_PLACEMENT_3D ( 'NONE', #258, #314, #150 ) ;
#53 = SURFACE_STYLE_FILL_AREA ( #252 ) ;
#54 = LINE ( 'NONE', #101, #12 ) ;
#55 = ORIENTED_EDGE ( 'NONE', *, *, #122, .T. ) ;
#56 = AXIS2_PLACEMENT_3D ( 'NONE', #205, #264, #266 ) ;
#57 = VERTEX_POINT ( 'NONE', #320 ) ;
#58 = CARTESIAN_POINT ( 'NONE',  ( 4.098000000000012299, -67.46977910593113847, 0.03499999999999999639 ) ) ;
#59 = ORIENTED_EDGE ( 'NONE', *, *, #74, .F. ) ;
#60 = MECHANICAL_DESIGN_GEOMETRIC_PRESENTATION_REPRESENTATION (  '', ( #330 ), #195 ) ;
#61 = CARTESIAN_POINT ( 'NONE',  ( 4.098000000000012299, -67.46977910593113847, 0.03499999999999999639 ) ) ;
#62 = EDGE_CURVE ( 'NONE', #140, #57, #178, .T. ) ;
#63 = ADVANCED_FACE ( 'NONE', ( #347 ), #118, .F. ) ;
#64 = DIRECTION ( 'NONE',  ( 1.000000000000000000, -7.215947210217222612E-17, 0.000000000000000000 ) ) ;
#65 = CARTESIAN_POINT ( 'NONE',  ( 7.215947210217224436E-15, 32.53022089406887574, 0.000000000000000000 ) ) ;
#66 = EDGE_LOOP ( 'NONE', ( #198, #360, #367, #292 ) ) ;
#67 = DIRECTION ( 'NONE',  ( -1.000000000000000000, 0.000000000000000000, 0.000000000000000000 ) ) ;
#68 = AXIS2_PLACEMENT_3D ( 'NONE', #200, #64, #8 ) ;
#69 = CARTESIAN_POINT ( 'NONE',  ( -57.87962461374274170, 37.79579860248105661, -1.035000000000000142 ) ) ;
#70 = EDGE_CURVE ( 'NONE', #257, #217, #37, .T. ) ;
#71 = CARTESIAN_POINT ( 'NONE',  ( 65.94167081054092705, -76.60076307262286832, -1.035000000000000142 ) ) ;
#72 =( GEOMETRIC_REPRESENTATION_CONTEXT ( 3 ) GLOBAL_UNCERTAINTY_ASSIGNED_CONTEXT ( ( #115 ) ) GLOBAL_UNIT_ASSIGNED_CONTEXT ( ( #197, #86, #232 ) ) REPRESENTATION_CONTEXT ( 'NONE', 'WORKASPACE' ) );
#73 = DIRECTION ( 'NONE',  ( 0.000000000000000000, -0.000000000000000000, 1.000000000000000000 ) ) ;
#74 = EDGE_CURVE ( 'NONE', #177, #257, #114, .T. ) ;
#75 = FILL_AREA_STYLE_COLOUR ( '', #207 ) ;
#76 = LINE ( 'NONE', #79, #299 ) ;
#77 = CARTESIAN_POINT ( 'NONE',  ( -57.87962461374274170, 37.79579860248105661, -1.000000000000000000 ) ) ;
#78 = VERTEX_POINT ( 'NONE', #149 ) ;
#79 = CARTESIAN_POINT ( 'NONE',  ( -57.87962461374274170, -76.60076307262286832, -1.035000000000000142 ) ) ;
#80 = DIRECTION ( 'NONE',  ( -1.000000000000000000, 0.000000000000000000, 0.000000000000000000 ) ) ;
#81 = ORIENTED_EDGE ( 'NONE', *, *, #169, .T. ) ;
#82 = DIRECTION ( 'NONE',  ( -0.000000000000000000, -0.000000000000000000, -1.000000000000000000 ) ) ;
#83 = MECHANICAL_DESIGN_GEOMETRIC_PRESENTATION_REPRESENTATION (  '', ( #29 ), #44 ) ;
#84 = VECTOR ( 'NONE', #28, 1000.000000000000000 ) ;
#85 = FACE_OUTER_BOUND ( 'NONE', #9, .T. ) ;
#86 =( NAMED_UNIT ( * ) PLANE_ANGLE_UNIT ( ) SI_UNIT ( $, .RADIAN. ) );
#87 = ORIENTED_EDGE ( 'NONE', *, *, #261, .F. ) ;
#88 = SURFACE_STYLE_USAGE ( .BOTH. , #120 ) ;
#89 = SURFACE_STYLE_FILL_AREA ( #33 ) ;
#90 = ORIENTED_EDGE ( 'NONE', *, *, #313, .T. ) ;
#91 =( GEOMETRIC_REPRESENTATION_CONTEXT ( 3 ) GLOBAL_UNCERTAINTY_ASSIGNED_CONTEXT ( ( #291 ) ) GLOBAL_UNIT_ASSIGNED_CONTEXT ( ( #162, #281, #306 ) ) REPRESENTATION_CONTEXT ( 'NONE', 'WORKASPACE' ) );
#92 = CARTESIAN_POINT ( 'NONE',  ( 7.215947210217224436E-15, 32.53022089406887574, 0.03499999999999999639 ) ) ;
#93 =( NAMED_UNIT ( * ) PLANE_ANGLE_UNIT ( ) SI_UNIT ( $, .RADIAN. ) );
#94 = PLANE ( 'NONE',  #329 ) ;
#95 = VECTOR ( 'NONE', #112, 1000.000000000000000 ) ;
#96 = CARTESIAN_POINT ( 'NONE',  ( 0.000000000000000000, 0.000000000000000000, -1.000000000000000000 ) ) ;
#97 = CARTESIAN_POINT ( 'NONE',  ( 7.215947210217224436E-15, 32.53022089406887574, 0.03499999999999999639 ) ) ;
#98 = EDGE_CURVE ( 'NONE', #253, #194, #260, .T. ) ;
#99 = EDGE_CURVE ( 'NONE', #140, #217, #296, .T. ) ;
#100 = VECTOR ( 'NONE', #15, 1000.000000000000000 ) ;
#101 = CARTESIAN_POINT ( 'NONE',  ( 4.098000000000012299, 32.53022089406887574, 0.03499999999999999639 ) ) ;
#102 = SHAPE_DEFINITION_REPRESENTATION ( #34, #337 ) ;
#103 = VECTOR ( 'NONE', #105, 1000.000000000000000 ) ;
#104 = STYLED_ITEM ( 'NONE', ( #224 ), #113 ) ;
#105 = DIRECTION ( 'NONE',  ( 0.000000000000000000, 1.000000000000000000, 0.000000000000000000 ) ) ;
#106 = ORIENTED_EDGE ( 'NONE', *, *, #202, .F. ) ;
#107 = PRESENTATION_STYLE_ASSIGNMENT (( #138 ) ) ;
#108 = PLANE ( 'NONE',  #210 ) ;
#109 = EDGE_CURVE ( 'NONE', #233, #253, #3, .T. ) ;
#110 = ORIENTED_EDGE ( 'NONE', *, *, #261, .T. ) ;
#111 = DIRECTION ( 'NONE',  ( -1.000000000000000000, 0.000000000000000000, 0.000000000000000000 ) ) ;
#112 = DIRECTION ( 'NONE',  ( -1.000000000000000000, 0.000000000000000000, 0.000000000000000000 ) ) ;
#113 = MANIFOLD_SOLID_BREP ( 'Бобышка-Вытянуть4', #165 ) ;
#114 = LINE ( 'NONE', #65, #316 ) ;
#115 = UNCERTAINTY_MEASURE_WITH_UNIT (LENGTH_MEASURE( 1.000000000000000082E-05 ), #197, 'distance_accuracy_value', 'NONE');
#116 = EDGE_LOOP ( 'NONE', ( #311, #297, #287, #362 ) ) ;
#117 = ADVANCED_FACE ( 'NONE', ( #36 ), #146, .T. ) ;
#118 = PLANE ( 'NONE',  #52 ) ;
#119 = VECTOR ( 'NONE', #82, 1000.000000000000000 ) ;
#120 = SURFACE_SIDE_STYLE ('',( #89 ) ) ;
#121 = CARTESIAN_POINT ( 'NONE',  ( -57.87962461374274170, -76.60076307262286832, -1.000000000000000000 ) ) ;
#122 = EDGE_CURVE ( 'NONE', #57, #78, #124, .T. ) ;
#123 = ORIENTED_EDGE ( 'NONE', *, *, #322, .T. ) ;
#124 = LINE ( 'NONE', #148, #234 ) ;
#125 = AXIS2_PLACEMENT_3D ( 'NONE', #203, #319, #73 ) ;
#126 = ORIENTED_EDGE ( 'NONE', *, *, #202, .T. ) ;
#127 = FACE_OUTER_BOUND ( 'NONE', #295, .T. ) ;
#128 = ADVANCED_FACE ( 'NONE', ( #85 ), #199, .F. ) ;
#129 = CARTESIAN_POINT ( 'NONE',  ( 4.098000000000012299, -67.46977910593113847, 0.03499999999999999639 ) ) ;
#130 = FILL_AREA_STYLE ('',( #350 ) ) ;
#131 = DIRECTION ( 'NONE',  ( -0.000000000000000000, 1.000000000000000000, -0.000000000000000000 ) ) ;
#132 = LINE ( 'NONE', #23, #342 ) ;
#133 = DIRECTION ( 'NONE',  ( 0.000000000000000000, 0.000000000000000000, 1.000000000000000000 ) ) ;
#134 = LINE ( 'NONE', #353, #103 ) ;
#135 = CARTESIAN_POINT ( 'NONE',  ( -57.87962461374274170, 37.79579860248105661, -1.035000000000000142 ) ) ;
#136 = AXIS2_PLACEMENT_3D ( 'NONE', #190, #331, #80 ) ;
#137 = FACE_OUTER_BOUND ( 'NONE', #285, .T. ) ;
#138 = SURFACE_STYLE_USAGE ( .BOTH. , #26 ) ;
#139 = ADVANCED_FACE ( 'NONE', ( #351 ), #94, .F. ) ;
#140 = VERTEX_POINT ( 'NONE', #129 ) ;
#141 = CARTESIAN_POINT ( 'NONE',  ( 65.94167081054092705, -76.60076307262286832, -1.035000000000000142 ) ) ;
#142 = FACE_OUTER_BOUND ( 'NONE', #166, .T. ) ;
#143 = EDGE_LOOP ( 'NONE', ( #30, #161, #27, #270 ) ) ;
#144 = DIRECTION ( 'NONE',  ( -0.000000000000000000, -0.000000000000000000, -1.000000000000000000 ) ) ;
#145 = EDGE_CURVE ( 'NONE', #175, #233, #40, .T. ) ;
#146 = PLANE ( 'NONE',  #56 ) ;
#147 = ORIENTED_EDGE ( 'NONE', *, *, #99, .F. ) ;
#148 = CARTESIAN_POINT ( 'NONE',  ( 4.098000000000012299, 32.53022089406887574, 0.03499999999999999639 ) ) ;
#149 = CARTESIAN_POINT ( 'NONE',  ( 4.098000000000012299, 32.53022089406887574, 0.000000000000000000 ) ) ;
#150 = DIRECTION ( 'NONE',  ( -0.000000000000000000, 0.000000000000000000, 1.000000000000000000 ) ) ;
#151 = CARTESIAN_POINT ( 'NONE',  ( 65.94167081054092705, -76.60076307262286832, -1.035000000000000142 ) ) ;
#152 = AXIS2_PLACEMENT_3D ( 'NONE', #71, #188, #211 ) ;
#153 = VERTEX_POINT ( 'NONE', #92 ) ;
#154 = CARTESIAN_POINT ( 'NONE',  ( -57.87962461374274170, 37.79579860248105661, -1.000000000000000000 ) ) ;
#155 = VECTOR ( 'NONE', #366, 1000.000000000000000 ) ;
#156 = EDGE_CURVE ( 'NONE', #267, #41, #186, .T. ) ;
#157 = DIRECTION ( 'NONE',  ( -0.000000000000000000, -0.000000000000000000, -1.000000000000000000 ) ) ;
#158 = DIRECTION ( 'NONE',  ( -0.000000000000000000, -0.000000000000000000, 1.000000000000000000 ) ) ;
#159 = DIRECTION ( 'NONE',  ( 1.000000000000000000, -0.000000000000000000, -0.000000000000000000 ) ) ;
#160 = CARTESIAN_POINT ( 'NONE',  ( 0.000000000000000000, 0.000000000000000000, 0.000000000000000000 ) ) ;
#161 = ORIENTED_EDGE ( 'NONE', *, *, #181, .F. ) ;
#162 =( LENGTH_UNIT ( ) NAMED_UNIT ( * ) SI_UNIT ( .MILLI., .METRE. ) );
#163 = LINE ( 'NONE', #244, #19 ) ;
#164 = ORIENTED_EDGE ( 'NONE', *, *, #156, .F. ) ;
#165 = CLOSED_SHELL ( 'NONE', ( #63, #236, #16, #302, #301, #139 ) ) ;
#166 = EDGE_LOOP ( 'NONE', ( #279, #334, #191, #223 ) ) ;
#167 = LINE ( 'NONE', #286, #263 ) ;
#168 = PRODUCT ( 'MicroStrip', 'MicroStrip', '', ( #332 ) ) ;
#169 = EDGE_CURVE ( 'NONE', #265, #267, #238, .T. ) ;
#170 = VECTOR ( 'NONE', #241, 1000.000000000000000 ) ;
#171 = EDGE_LOOP ( 'NONE', ( #110, #250, #288, #228 ) ) ;
#172 = AXIS2_PLACEMENT_3D ( 'NONE', #358, #308, #17 ) ;
#173 =( NAMED_UNIT ( * ) PLANE_ANGLE_UNIT ( ) SI_UNIT ( $, .RADIAN. ) );
#174 = LINE ( 'NONE', #235, #229 ) ;
#175 = VERTEX_POINT ( 'NONE', #182 ) ;
#176 = DIRECTION ( 'NONE',  ( -7.215947210217223845E-17, -1.000000000000000000, 0.000000000000000000 ) ) ;
#177 = VERTEX_POINT ( 'NONE', #47 ) ;
#178 = LINE ( 'NONE', #58, #155 ) ;
#179 = CARTESIAN_POINT ( 'NONE',  ( 65.94167081054092705, 37.79579860248105661, -1.000000000000000000 ) ) ;
#180 = ORIENTED_EDGE ( 'NONE', *, *, #145, .T. ) ;
#181 = EDGE_CURVE ( 'NONE', #225, #257, #349, .T. ) ;
#182 = CARTESIAN_POINT ( 'NONE',  ( -57.87962461374274170, -76.60076307262286832, -1.035000000000000142 ) ) ;
#183 =( NAMED_UNIT ( * ) SI_UNIT ( $, .STERADIAN. ) SOLID_ANGLE_UNIT ( ) );
#184 = AXIS2_PLACEMENT_3D ( 'NONE', #248, #51, #192 ) ;
#185 = VECTOR ( 'NONE', #193, 1000.000000000000000 ) ;
#186 = LINE ( 'NONE', #274, #100 ) ;
#187 = DIRECTION ( 'NONE',  ( 0.000000000000000000, -1.000000000000000000, 0.000000000000000000 ) ) ;
#188 = DIRECTION ( 'NONE',  ( 0.000000000000000000, 1.000000000000000000, 0.000000000000000000 ) ) ;
#189 = ORIENTED_EDGE ( 'NONE', *, *, #290, .F. ) ;
#190 = CARTESIAN_POINT ( 'NONE',  ( 0.000000000000000000, 0.000000000000000000, -1.035000000000000142 ) ) ;
#191 = ORIENTED_EDGE ( 'NONE', *, *, #145, .F. ) ;
#192 = DIRECTION ( 'NONE',  ( 0.000000000000000000, 0.000000000000000000, 1.000000000000000000 ) ) ;
#193 = DIRECTION ( 'NONE',  ( -0.000000000000000000, 1.000000000000000000, -0.000000000000000000 ) ) ;
#194 = VERTEX_POINT ( 'NONE', #14 ) ;
#195 =( GEOMETRIC_REPRESENTATION_CONTEXT ( 3 ) GLOBAL_UNCERTAINTY_ASSIGNED_CONTEXT ( ( #31 ) ) GLOBAL_UNIT_ASSIGNED_CONTEXT ( ( #361, #173, #2 ) ) REPRESENTATION_CONTEXT ( 'NONE', 'WORKASPACE' ) );
#196 = DIRECTION ( 'NONE',  ( -1.000000000000000000, 0.000000000000000000, 0.000000000000000000 ) ) ;
#197 =( LENGTH_UNIT ( ) NAMED_UNIT ( * ) SI_UNIT ( .MILLI., .METRE. ) );
#198 = ORIENTED_EDGE ( 'NONE', *, *, #230, .T. ) ;
#199 = PLANE ( 'NONE',  #125 ) ;
#200 = CARTESIAN_POINT ( 'NONE',  ( 7.215947210217224436E-15, 32.53022089406887574, 0.03499999999999999639 ) ) ;
#201 = ORIENTED_EDGE ( 'NONE', *, *, #6, .F. ) ;
#202 = EDGE_CURVE ( 'NONE', #194, #267, #212, .T. ) ;
#203 = CARTESIAN_POINT ( 'NONE',  ( 0.000000000000000000, -67.46977910593113847, 0.03499999999999999639 ) ) ;
#204 = ORIENTED_EDGE ( 'NONE', *, *, #70, .F. ) ;
#205 = CARTESIAN_POINT ( 'NONE',  ( 0.000000000000000000, 0.000000000000000000, 0.03499999999999999639 ) ) ;
#206 = ORIENTED_EDGE ( 'NONE', *, *, #156, .T. ) ;
#207 = COLOUR_RGB ( '',0.7921568627450980005, 0.8196078431372548767, 0.9333333333333333481 ) ;
#208 = CARTESIAN_POINT ( 'NONE',  ( 65.94167081054092705, 37.79579860248105661, -1.000000000000000000 ) ) ;
#209 = DIRECTION ( 'NONE',  ( 1.000000000000000000, 0.000000000000000000, 0.000000000000000000 ) ) ;
#210 = AXIS2_PLACEMENT_3D ( 'NONE', #256, #251, #218 ) ;
#211 = DIRECTION ( 'NONE',  ( 0.000000000000000000, -0.000000000000000000, 1.000000000000000000 ) ) ;
#212 = LINE ( 'NONE', #208, #312 ) ;
#213 = VECTOR ( 'NONE', #157, 1000.000000000000000 ) ;
#214 = LINE ( 'NONE', #49, #282 ) ;
#215 = EDGE_CURVE ( 'NONE', #153, #177, #13, .T. ) ;
#216 = PLANE ( 'NONE',  #172 ) ;
#217 = VERTEX_POINT ( 'NONE', #323 ) ;
#218 = DIRECTION ( 'NONE',  ( 0.000000000000000000, -0.000000000000000000, -1.000000000000000000 ) ) ;
#219 = FACE_OUTER_BOUND ( 'NONE', #11, .T. ) ;
#220 = ADVANCED_FACE ( 'NONE', ( #304 ), #298, .F. ) ;
#221 = CARTESIAN_POINT ( 'NONE',  ( 65.94167081054092705, -76.60076307262286832, -1.000000000000000000 ) ) ;
#222 = LINE ( 'NONE', #77, #185 ) ;
#223 = ORIENTED_EDGE ( 'NONE', *, *, #290, .T. ) ;
#224 = PRESENTATION_STYLE_ASSIGNMENT (( #88 ) ) ;
#225 = VERTEX_POINT ( 'NONE', #43 ) ;
#226 = VECTOR ( 'NONE', #158, 1000.000000000000000 ) ;
#227 = APPLICATION_CONTEXT ( 'automotive_design' ) ;
#228 = ORIENTED_EDGE ( 'NONE', *, *, #99, .T. ) ;
#229 = VECTOR ( 'NONE', #176, 1000.000000000000000 ) ;
#230 = EDGE_CURVE ( 'NONE', #225, #140, #163, .T. ) ;
#231 = ORIENTED_EDGE ( 'NONE', *, *, #98, .F. ) ;
#232 =( NAMED_UNIT ( * ) SI_UNIT ( $, .STERADIAN. ) SOLID_ANGLE_UNIT ( ) );
#233 = VERTEX_POINT ( 'NONE', #269 ) ;
#234 = VECTOR ( 'NONE', #144, 1000.000000000000000 ) ;
#235 = CARTESIAN_POINT ( 'NONE',  ( 7.215947210217224436E-15, 32.53022089406887574, 0.03499999999999999639 ) ) ;
#236 = ADVANCED_FACE ( 'NONE', ( #127 ), #300, .F. ) ;
#237 = VERTEX_POINT ( 'NONE', #327 ) ;
#238 = LINE ( 'NONE', #151, #226 ) ;
#239 = ORIENTED_EDGE ( 'NONE', *, *, #215, .F. ) ;
#240 = MANIFOLD_SOLID_BREP ( 'Бобышка-Вытянуть1', #344 ) ;
#241 = DIRECTION ( 'NONE',  ( -0.000000000000000000, -0.000000000000000000, -1.000000000000000000 ) ) ;
#242 = DIRECTION ( 'NONE',  ( 1.000000000000000000, 0.000000000000000000, -0.000000000000000000 ) ) ;
#243 = DIRECTION ( 'NONE',  ( -0.000000000000000000, 0.000000000000000000, -1.000000000000000000 ) ) ;
#244 = CARTESIAN_POINT ( 'NONE',  ( 0.000000000000000000, -67.46977910593113847, 0.03499999999999999639 ) ) ;
#245 = FACE_OUTER_BOUND ( 'NONE', #171, .T. ) ;
#246 = EDGE_CURVE ( 'NONE', #237, #194, #363, .T. ) ;
#247 = AXIS2_PLACEMENT_3D ( 'NONE', #303, #276, #242 ) ;
#248 = CARTESIAN_POINT ( 'NONE',  ( 4.098000000000012299, -67.46977910593113847, 0.03499999999999999639 ) ) ;
#249 = DIRECTION ( 'NONE',  ( 0.000000000000000000, 0.000000000000000000, -1.000000000000000000 ) ) ;
#250 = ORIENTED_EDGE ( 'NONE', *, *, #122, .F. ) ;
#251 = DIRECTION ( 'NONE',  ( 0.000000000000000000, -1.000000000000000000, 0.000000000000000000 ) ) ;
#252 = FILL_AREA_STYLE ('',( #75 ) ) ;
#253 = VERTEX_POINT ( 'NONE', #154 ) ;
#254 = APPLICATION_CONTEXT ( 'automotive_design' ) ;
#255 = CARTESIAN_POINT ( 'NONE',  ( 65.94167081054092705, 37.79579860248105661, -1.035000000000000142 ) ) ;
#256 = CARTESIAN_POINT ( 'NONE',  ( 4.098000000000012299, 32.53022089406887574, 0.03499999999999999639 ) ) ;
#257 = VERTEX_POINT ( 'NONE', #277 ) ;
#258 = CARTESIAN_POINT ( 'NONE',  ( 65.94167081054092705, 37.79579860248105661, -1.035000000000000142 ) ) ;
#259 = EDGE_LOOP ( 'NONE', ( #106, #231, #365, #164 ) ) ;
#260 = LINE ( 'NONE', #179, #284 ) ;
#261 = EDGE_CURVE ( 'NONE', #217, #78, #134, .T. ) ;
#262 = PLANE ( 'NONE',  #68 ) ;
#263 = VECTOR ( 'NONE', #20, 1000.000000000000000 ) ;
#264 = DIRECTION ( 'NONE',  ( 0.000000000000000000, 0.000000000000000000, 1.000000000000000000 ) ) ;
#265 = VERTEX_POINT ( 'NONE', #141 ) ;
#266 = DIRECTION ( 'NONE',  ( 1.000000000000000000, 0.000000000000000000, -0.000000000000000000 ) ) ;
#267 = VERTEX_POINT ( 'NONE', #221 ) ;
#268 = VECTOR ( 'NONE', #131, 1000.000000000000000 ) ;
#269 = CARTESIAN_POINT ( 'NONE',  ( -57.87962461374274170, 37.79579860248105661, -1.035000000000000142 ) ) ;
#270 = ORIENTED_EDGE ( 'NONE', *, *, #215, .T. ) ;
#271 = VECTOR ( 'NONE', #341, 1000.000000000000000 ) ;
#272 = CARTESIAN_POINT ( 'NONE',  ( 0.000000000000000000, -67.46977910593113847, 0.03499999999999999639 ) ) ;
#273 = PRESENTATION_LAYER_ASSIGNMENT (  '', '', ( #330 ) ) ;
#274 = CARTESIAN_POINT ( 'NONE',  ( 65.94167081054092705, -76.60076307262286832, -1.000000000000000000 ) ) ;
#275 = EDGE_CURVE ( 'NONE', #57, #153, #54, .T. ) ;
#276 = DIRECTION ( 'NONE',  ( 0.000000000000000000, 0.000000000000000000, 1.000000000000000000 ) ) ;
#277 = CARTESIAN_POINT ( 'NONE',  ( 0.000000000000000000, -67.46977910593113847, 0.000000000000000000 ) ) ;
#278 = APPLICATION_PROTOCOL_DEFINITION ( 'draft international standard', 'automotive_design', 1998, #254 ) ;
#279 = ORIENTED_EDGE ( 'NONE', *, *, #39, .T. ) ;
#280 = ORIENTED_EDGE ( 'NONE', *, *, #275, .F. ) ;
#281 =( NAMED_UNIT ( * ) PLANE_ANGLE_UNIT ( ) SI_UNIT ( $, .RADIAN. ) );
#282 = VECTOR ( 'NONE', #196, 1000.000000000000000 ) ;
#283 = PLANE ( 'NONE',  #356 ) ;
#284 = VECTOR ( 'NONE', #345, 1000.000000000000000 ) ;
#285 = EDGE_LOOP ( 'NONE', ( #90, #239, #280, #55 ) ) ;
#286 = CARTESIAN_POINT ( 'NONE',  ( 65.94167081054092705, 37.79579860248105661, -1.035000000000000142 ) ) ;
#287 = ORIENTED_EDGE ( 'NONE', *, *, #322, .F. ) ;
#288 = ORIENTED_EDGE ( 'NONE', *, *, #62, .F. ) ;
#289 = CARTESIAN_POINT ( 'NONE',  ( 0.000000000000000000, -67.46977910593113847, 0.000000000000000000 ) ) ;
#290 = EDGE_CURVE ( 'NONE', #175, #41, #76, .T. ) ;
#291 = UNCERTAINTY_MEASURE_WITH_UNIT (LENGTH_MEASURE( 1.000000000000000082E-05 ), #162, 'distance_accuracy_value', 'NONE');
#292 = ORIENTED_EDGE ( 'NONE', *, *, #46, .T. ) ;
#293 = FACE_OUTER_BOUND ( 'NONE', #143, .T. ) ;
#294 = DIRECTION ( 'NONE',  ( 1.000000000000000000, 0.000000000000000000, 0.000000000000000000 ) ) ;
#295 = EDGE_LOOP ( 'NONE', ( #206, #189, #343, #81 ) ) ;
#296 = LINE ( 'NONE', #61, #119 ) ;
#297 = ORIENTED_EDGE ( 'NONE', *, *, #246, .F. ) ;
#298 = PLANE ( 'NONE',  #247 ) ;
#299 = VECTOR ( 'NONE', #338, 1000.000000000000000 ) ;
#300 = PLANE ( 'NONE',  #152 ) ;
#301 = ADVANCED_FACE ( 'NONE', ( #219 ), #18, .T. ) ;
#302 = ADVANCED_FACE ( 'NONE', ( #305 ), #216, .F. ) ;
#303 = CARTESIAN_POINT ( 'NONE',  ( 0.000000000000000000, 0.000000000000000000, 0.000000000000000000 ) ) ;
#304 = FACE_OUTER_BOUND ( 'NONE', #25, .T. ) ;
#305 = FACE_OUTER_BOUND ( 'NONE', #116, .T. ) ;
#306 =( NAMED_UNIT ( * ) SI_UNIT ( $, .STERADIAN. ) SOLID_ANGLE_UNIT ( ) );
#307 = ORIENTED_EDGE ( 'NONE', *, *, #313, .F. ) ;
#308 = DIRECTION ( 'NONE',  ( 0.000000000000000000, -1.000000000000000000, -0.000000000000000000 ) ) ;
#309 = PLANE ( 'NONE',  #184 ) ;
#310 = ORIENTED_EDGE ( 'NONE', *, *, #169, .F. ) ;
#311 = ORIENTED_EDGE ( 'NONE', *, *, #98, .T. ) ;
#312 = VECTOR ( 'NONE', #187, 1000.000000000000000 ) ;
#313 = EDGE_CURVE ( 'NONE', #78, #177, #214, .T. ) ;
#314 = DIRECTION ( 'NONE',  ( -1.000000000000000000, 0.000000000000000000, -0.000000000000000000 ) ) ;
#315 = PRODUCT_RELATED_PRODUCT_CATEGORY ( 'part', '', ( #168 ) ) ;
#316 = VECTOR ( 'NONE', #1, 1000.000000000000000 ) ;
#317 = PRODUCT_DEFINITION_CONTEXT ( 'detailed design', #227, 'design' ) ;
#318 = ORIENTED_EDGE ( 'NONE', *, *, #6, .T. ) ;
#319 = DIRECTION ( 'NONE',  ( 0.000000000000000000, 1.000000000000000000, 0.000000000000000000 ) ) ;
#320 = CARTESIAN_POINT ( 'NONE',  ( 4.098000000000012299, 32.53022089406887574, 0.03499999999999999639 ) ) ;
#321 = EDGE_LOOP ( 'NONE', ( #126, #310, #201, #32 ) ) ;
#322 = EDGE_CURVE ( 'NONE', #233, #237, #132, .T. ) ;
#323 = CARTESIAN_POINT ( 'NONE',  ( 4.098000000000012299, -67.46977910593113847, 0.000000000000000000 ) ) ;
#324 = COLOUR_RGB ( '',0.7921568627450980005, 0.8196078431372548767, 0.9333333333333333481 ) ;
#325 = PRODUCT_DEFINITION_FORMATION_WITH_SPECIFIED_SOURCE ( 'ANY', '', #168, .NOT_KNOWN. ) ;
#326 = PRESENTATION_STYLE_ASSIGNMENT (( #352 ) ) ;
#327 = CARTESIAN_POINT ( 'NONE',  ( 65.94167081054092705, 37.79579860248105661, -1.035000000000000142 ) ) ;
#328 = SURFACE_STYLE_FILL_AREA ( #130 ) ;
#329 = AXIS2_PLACEMENT_3D ( 'NONE', #96, #243, #67 ) ;
#330 = STYLED_ITEM ( 'NONE', ( #107 ), #337 ) ;
#331 = DIRECTION ( 'NONE',  ( -0.000000000000000000, 0.000000000000000000, -1.000000000000000000 ) ) ;
#332 = PRODUCT_CONTEXT ( 'NONE', #254, 'mechanical' ) ;
#333 = LINE ( 'NONE', #364, #95 ) ;
#334 = ORIENTED_EDGE ( 'NONE', *, *, #109, .F. ) ;
#335 = APPLICATION_PROTOCOL_DEFINITION ( 'draft international standard', 'automotive_design', 1998, #227 ) ;
#336 = ORIENTED_EDGE ( 'NONE', *, *, #230, .F. ) ;
#337 = ADVANCED_BREP_SHAPE_REPRESENTATION ( 'MicroStrip', ( #240, #113, #5 ), #91 ) ;
#338 = DIRECTION ( 'NONE',  ( -0.000000000000000000, -0.000000000000000000, 1.000000000000000000 ) ) ;
#339 = UNCERTAINTY_MEASURE_WITH_UNIT (LENGTH_MEASURE( 1.000000000000000082E-05 ), #48, 'distance_accuracy_value', 'NONE');
#340 = ORIENTED_EDGE ( 'NONE', *, *, #181, .T. ) ;
#341 = DIRECTION ( 'NONE',  ( -0.000000000000000000, -0.000000000000000000, 1.000000000000000000 ) ) ;
#342 = VECTOR ( 'NONE', #159, 1000.000000000000000 ) ;
#343 = ORIENTED_EDGE ( 'NONE', *, *, #35, .F. ) ;
#344 = CLOSED_SHELL ( 'NONE', ( #128, #357, #21, #50, #117, #220 ) ) ;
#345 = DIRECTION ( 'NONE',  ( 1.000000000000000000, -0.000000000000000000, -0.000000000000000000 ) ) ;
#346 = CARTESIAN_POINT ( 'NONE',  ( -57.87962461374274170, 37.79579860248105661, -1.035000000000000142 ) ) ;
#347 = FACE_OUTER_BOUND ( 'NONE', #321, .T. ) ;
#348 = ORIENTED_EDGE ( 'NONE', *, *, #70, .T. ) ;
#349 = LINE ( 'NONE', #272, #170 ) ;
#350 = FILL_AREA_STYLE_COLOUR ( '', #354 ) ;
#351 = FACE_OUTER_BOUND ( 'NONE', #259, .T. ) ;
#352 = SURFACE_STYLE_USAGE ( .BOTH. , #10 ) ;
#353 = CARTESIAN_POINT ( 'NONE',  ( 4.098000000000012299, -67.46977910593113847, 0.000000000000000000 ) ) ;
#354 = COLOUR_RGB ( '',0.7921568627450980005, 0.8196078431372548767, 0.9333333333333333481 ) ;
#355 = DIRECTION ( 'NONE',  ( 1.000000000000000000, 0.000000000000000000, 0.000000000000000000 ) ) ;
#356 = AXIS2_PLACEMENT_3D ( 'NONE', #135, #24, #249 ) ;
#357 = ADVANCED_FACE ( 'NONE', ( #245 ), #309, .F. ) ;
#358 = CARTESIAN_POINT ( 'NONE',  ( 65.94167081054092705, 37.79579860248105661, -1.035000000000000142 ) ) ;
#359 = PRODUCT_DEFINITION ( 'UNKNOWN', '', #325, #317 ) ;
#360 = ORIENTED_EDGE ( 'NONE', *, *, #62, .T. ) ;
#361 =( LENGTH_UNIT ( ) NAMED_UNIT ( * ) SI_UNIT ( .MILLI., .METRE. ) );
#362 = ORIENTED_EDGE ( 'NONE', *, *, #109, .T. ) ;
#363 = LINE ( 'NONE', #255, #84 ) ;
#364 = CARTESIAN_POINT ( 'NONE',  ( 65.94167081054092705, -76.60076307262286832, -1.035000000000000142 ) ) ;
#365 = ORIENTED_EDGE ( 'NONE', *, *, #39, .F. ) ;
#366 = DIRECTION ( 'NONE',  ( 0.000000000000000000, 1.000000000000000000, 0.000000000000000000 ) ) ;
#367 = ORIENTED_EDGE ( 'NONE', *, *, #275, .T. ) ;
ENDSEC;
END-ISO-10303-21;
